<?xml version="1.0" encoding="UTF-8"?><svg id="Layer_1" xmlns="http://www.w3.org/2000/svg" viewBox="0 0 170.564 51.07"><defs><style>.cls-1{fill:#fff;}.cls-1,.cls-2{stroke-width:0px;}.cls-2{fill:#ffdc00;}</style></defs><path class="cls-1" d="m50.656,17.048h-4.564l-6.634,16.996h4.657l1.165-2.904h6.039l1.098,2.904h4.679l-6.44-16.996Zm-4.166,10.773l1.814-5.442h.045l1.792,5.442h-3.651Z"/><path class="cls-1" d="m33.309,17.035h-6.716v17.01h4.564v-5.808h2.308c3.829,0,5.979-1.664,5.979-5.648,0-3.873-2.508-5.553-6.135-5.553Zm-1.591,7.883h-.561v-4.159h.561c1.704,0,3.159-.032,3.159,2.096,0,2.063-1.568,2.063-3.159,2.063Z"/><polygon class="cls-1" points="119.107 27.406 123.671 27.416 123.671 23.673 119.107 23.673 119.107 20.768 125.33 20.768 125.33 17.035 114.544 17.035 114.544 34.044 125.33 34.044 125.33 29.896 119.107 29.896 119.107 27.406"/><polygon class="cls-1" points="79.281 21.598 83.429 21.598 83.454 34.044 87.993 34.044 87.993 21.598 92.142 21.598 92.142 17.035 79.281 17.035 79.281 21.598"/><polygon class="cls-1" points="106.246 23.673 100.023 23.673 100.023 17.035 95.461 17.035 95.461 34.044 100.023 34.044 100.023 27.406 106.246 27.406 106.246 34.044 110.81 34.044 110.81 17.035 106.246 17.035 106.246 23.673"/><path class="cls-1" d="m136.324,21.598c2.177,0,3.942,1.764,3.943,3.941,0,2.177-1.764,3.942-3.941,3.943-2.177,0-3.942-1.764-3.943-3.941h0c.005-2.175,1.766-3.937,3.941-3.943m0-4.564c-4.697,0-8.506,3.807-8.506,8.504,0,4.697,3.807,8.506,8.504,8.506,4.697,0,8.506-3.807,8.506-8.504h0c0-4.698-3.806-8.506-8.503-8.506h-.001Z"/><polygon class="cls-1" points="159.747 26.561 152.438 17.035 148.147 17.035 148.147 34.044 152.725 34.044 152.711 24.502 159.695 34.044 164.327 34.044 164.327 17.035 159.763 17.035 159.747 26.561"/><polygon class="cls-1" points="71.382 26.561 64.073 17.035 59.782 17.035 59.782 34.044 64.36 34.044 64.345 24.502 71.331 34.044 75.962 34.044 75.962 17.035 71.398 17.035 71.382 26.561"/><polygon class="cls-2" points="2.046 0 6.613 11.004 .801 11.004 2.722 15.847 14.502 15.847 2.046 0"/><polygon class="cls-2" points="17.534 40.064 15.589 35.22 12.893 35.22 7.288 21.596 4.872 21.596 10.475 35.22 3.626 35.22 16.288 51.07 11.722 40.064 17.534 40.064"/><path class="cls-1" d="m19.103,20.693c.142,0,.475-.182.475-1.865s-.333-1.862-.475-1.862h-8.11l1.54,3.728h6.57Z"/><path class="cls-1" d="m14.375,25.164h5.452c.145,0,.476-.182.476-1.864s-.332-1.863-.476-1.863h-6.991l1.54,3.728Z"/><path class="cls-1" d="m19.103,30.377h-7.331l1.54,3.728h5.792c.142,0,.475-.181.475-1.863s-.333-1.864-.475-1.864Z"/><path class="cls-1" d="m19.826,25.906h-9.902l1.54,3.729h8.362c.145,0,.476-.183.476-1.863s-.332-1.865-.476-1.865Z"/><path class="cls-1" d="m19.103,30.377h-7.331l1.54,3.728h5.792c.142,0,.475-.181.475-1.863s-.333-1.864-.475-1.864Z"/><path class="cls-1" d="m19.826,25.906h-9.902l1.54,3.729h8.362c.145,0,.476-.183.476-1.863s-.332-1.865-.476-1.865Z"/><path class="cls-1" d="m5.44,25.192l-1.743-4.501h4.069l1.881,4.507,3.887-.034-3.387-8.199H1.696c-.652,0-1.01,0-1.303.97-.352,1.158-.393,3.344-.393,7.599s.041,6.447.393,7.599c.293.97.651.97,1.303.97h7.418l-3.676-8.942.002.031Z"/><path class="cls-1" d="m167.229,17.218h-.544v-.348h1.531v.348h-.544v1.587h-.443v-1.587Zm2.096,1.587l-.489-1.481v1.481h-.388v-1.934h.589l.479,1.491.478-1.491h.569v1.934h-.403v-1.481l-.474,1.481h-.363Z"/></svg>